<?xml version="1.0" standalone="no"?>
<!DOCTYPE svg PUBLIC "-//W3C//DTD SVG 20010904//EN"
 "http://www.w3.org/TR/2001/REC-SVG-20010904/DTD/svg10.dtd">
<svg version="1.0" xmlns="http://www.w3.org/2000/svg"
 width="130.000000pt" height="130.000000pt" viewBox="0 0 130.000000 130.000000"
 preserveAspectRatio="xMidYMid meet">
<metadata>
Created by potrace 1.11, written by Peter Selinger 2001-2013
</metadata>
<g transform="translate(0.000000,130.000000) scale(0.100000,-0.100000)"
fill="#000000" stroke="none">
<path d="M840 1210 c-13 -8 -15 -72 -15 -480 0 -408 2 -472 15 -480 25 -16 59
-11 70 9 6 13 10 180 10 475 0 400 -2 456 -16 470 -17 18 -42 20 -64 6z"/>
<path d="M1056 1048 c-11 -19 -14 -91 -12 -399 1 -401 2 -409 50 -409 46 0 46
3 46 411 0 339 -2 390 -16 403 -22 23 -51 20 -68 -6z"/>
<path d="M176 954 c-18 -17 -17 3 -17 -397 0 -304 2 -317 46 -317 51 0 52 9
51 368 -1 318 -2 334 -20 348 -25 18 -41 18 -60 -2z"/>
<path d="M622 874 c-22 -15 -22 -17 -22 -309 0 -254 2 -296 16 -309 21 -22 61
-20 74 3 6 12 10 129 10 310 0 288 0 290 -22 305 -12 9 -25 16 -28 16 -3 0
-16 -7 -28 -16z"/>
<path d="M396 654 c-13 -13 -16 -45 -16 -195 0 -105 4 -188 10 -200 13 -23 52
-25 73 -4 21 21 22 359 1 393 -17 26 -46 29 -68 6z"/>
<path d="M35 170 c-19 -21 -19 -45 1 -64 14 -14 83 -16 614 -16 531 0 600 2
614 16 9 8 16 24 16 33 0 46 2 46 -632 47 -543 0 -600 -1 -613 -16z"/>
</g>
</svg>
